<svg width="127" height="46" viewBox="0 0 127 46" fill="none" xmlns="http://www.w3.org/2000/svg">
<path d="M8.3015 34.288C5.9335 34.288 4.0935 33.68 2.7815 32.464C1.4695 31.216 0.8135 29.28 0.8135 26.656C0.8135 24.448 1.2455 22.016 2.1095 19.36C3.0055 16.704 4.4135 14.416 6.3335 12.496C8.2855 10.544 10.7495 9.568 13.7255 9.568C15.6455 9.568 17.0055 9.984 17.8055 10.816C18.6375 11.648 19.0535 12.704 19.0535 13.984C19.0535 15.104 18.8135 15.968 18.3335 16.576C17.8535 17.184 17.2455 17.488 16.5095 17.488C15.9655 17.488 15.4055 17.296 14.8295 16.912C15.2135 15.856 15.4055 14.912 15.4055 14.08C15.4055 13.472 15.2935 12.992 15.0695 12.64C14.8455 12.288 14.5095 12.112 14.0615 12.112C13.1015 12.112 12.1415 12.896 11.1815 14.464C10.2215 16.032 9.4375 17.936 8.8295 20.176C8.2215 22.416 7.9175 24.432 7.9175 26.224C7.9175 27.792 8.1895 28.864 8.7335 29.44C9.2775 29.984 10.1575 30.256 11.3735 30.256C13.1015 30.256 14.5735 29.856 15.7895 29.056C17.0375 28.256 18.3975 27.04 19.8695 25.408H21.5015C17.9495 31.328 13.5495 34.288 8.3015 34.288ZM25.6194 34.288C23.7954 34.288 22.2754 33.664 21.0594 32.416C19.8434 31.168 19.2354 29.216 19.2354 26.56C19.2354 24.192 19.6994 21.712 20.6274 19.12C21.5874 16.496 22.9954 14.288 24.8514 12.496C26.7394 10.672 28.9794 9.76 31.5714 9.76C32.8834 9.76 33.8594 9.984 34.4994 10.432C35.1394 10.88 35.4594 11.472 35.4594 12.208V12.544L35.9874 10H42.8994L39.4434 26.32C39.3154 26.8 39.2514 27.312 39.2514 27.856C39.2514 29.232 39.9074 29.92 41.2194 29.92C42.1154 29.92 42.8834 29.504 43.5234 28.672C44.1954 27.84 44.7234 26.752 45.1074 25.408H47.1234C45.9394 28.864 44.4674 31.216 42.7074 32.464C40.9794 33.68 39.2354 34.288 37.4754 34.288C36.1314 34.288 35.0434 33.92 34.2114 33.184C33.4114 32.416 32.9314 31.312 32.7714 29.872C31.8434 31.184 30.8034 32.256 29.6514 33.088C28.5314 33.888 27.1874 34.288 25.6194 34.288ZM28.7394 29.632C29.5394 29.632 30.3234 29.264 31.0914 28.528C31.8914 27.76 32.4354 26.72 32.7234 25.408L35.0274 14.56C35.0274 14.144 34.8674 13.744 34.5474 13.36C34.2274 12.944 33.7314 12.736 33.0594 12.736C31.7794 12.736 30.6274 13.488 29.6034 14.992C28.5794 16.464 27.7794 18.256 27.2034 20.368C26.6274 22.448 26.3394 24.288 26.3394 25.888C26.3394 27.488 26.5634 28.512 27.0114 28.96C27.4914 29.408 28.0674 29.632 28.7394 29.632ZM53.621 46C52.085 46 50.805 45.6 49.781 44.8C48.757 44 48.245 42.848 48.245 41.344C48.245 39.52 48.981 38.048 50.453 36.928C51.925 35.84 53.797 34.928 56.069 34.192L56.645 31.648C55.013 33.408 53.093 34.288 50.885 34.288C49.061 34.288 47.541 33.664 46.325 32.416C45.109 31.168 44.501 29.216 44.501 26.56C44.501 24.192 44.965 21.712 45.893 19.12C46.853 16.496 48.261 14.288 50.117 12.496C52.005 10.672 54.245 9.76 56.837 9.76C58.149 9.76 59.125 9.984 59.765 10.432C60.405 10.88 60.725 11.472 60.725 12.208V12.496L61.253 10H68.165L63.413 32.272C64.949 31.76 66.181 30.992 67.109 29.968C68.037 28.944 68.821 27.424 69.461 25.408H71.477C70.613 28.256 69.445 30.352 67.973 31.696C66.501 33.008 64.837 33.904 62.981 34.384L62.261 37.84C61.621 40.944 60.517 43.072 58.949 44.224C57.381 45.408 55.605 46 53.621 46ZM54.005 29.632C54.741 29.632 55.493 29.296 56.261 28.624C57.029 27.952 57.557 27.04 57.845 25.888L60.293 14.512C60.293 14.128 60.133 13.744 59.813 13.36C59.493 12.944 58.997 12.736 58.325 12.736C57.045 12.736 55.893 13.488 54.869 14.992C53.845 16.464 53.045 18.256 52.469 20.368C51.893 22.448 51.605 24.288 51.605 25.888C51.605 27.488 51.829 28.512 52.277 28.96C52.757 29.408 53.333 29.632 54.005 29.632ZM52.517 42.256C53.061 42.256 53.589 41.888 54.101 41.152C54.613 40.416 55.013 39.36 55.301 37.984L55.589 36.592C52.453 37.744 50.885 39.104 50.885 40.672C50.885 41.088 51.029 41.456 51.317 41.776C51.605 42.096 52.005 42.256 52.517 42.256ZM74.2051 34.288C72.6691 34.288 71.4211 33.808 70.4611 32.848C69.5331 31.888 69.0691 30.448 69.0691 28.528C69.0691 27.728 69.1971 26.688 69.4531 25.408L74.5891 1.36L81.6931 0.399998L76.1731 26.32C76.0451 26.8 75.9811 27.312 75.9811 27.856C75.9811 28.496 76.1251 28.96 76.4131 29.248C76.7331 29.504 77.2451 29.632 77.9491 29.632C78.8771 29.632 79.7411 29.248 80.5411 28.48C81.3411 27.68 81.9171 26.656 82.2691 25.408H84.2851C83.1011 28.864 81.5811 31.216 79.7251 32.464C77.8691 33.68 76.0291 34.288 74.2051 34.288ZM88.01 34.288C86.186 34.288 84.666 33.664 83.45 32.416C82.234 31.168 81.626 29.216 81.626 26.56C81.626 24.192 82.09 21.712 83.018 19.12C83.978 16.496 85.386 14.288 87.242 12.496C89.13 10.672 91.37 9.76 93.962 9.76C95.274 9.76 96.25 9.984 96.89 10.432C97.53 10.88 97.85 11.472 97.85 12.208V12.544L98.378 10H105.29L101.834 26.32C101.706 26.8 101.642 27.312 101.642 27.856C101.642 29.232 102.298 29.92 103.61 29.92C104.506 29.92 105.274 29.504 105.914 28.672C106.586 27.84 107.114 26.752 107.498 25.408H109.514C108.33 28.864 106.858 31.216 105.098 32.464C103.37 33.68 101.626 34.288 99.866 34.288C98.522 34.288 97.434 33.92 96.602 33.184C95.802 32.416 95.322 31.312 95.162 29.872C94.234 31.184 93.194 32.256 92.042 33.088C90.922 33.888 89.578 34.288 88.01 34.288ZM91.13 29.632C91.93 29.632 92.714 29.264 93.482 28.528C94.282 27.76 94.826 26.72 95.114 25.408L97.418 14.56C97.418 14.144 97.258 13.744 96.938 13.36C96.618 12.944 96.122 12.736 95.45 12.736C94.17 12.736 93.018 13.488 91.994 14.992C90.97 16.464 90.17 18.256 89.594 20.368C89.018 22.448 88.73 24.288 88.73 25.888C88.73 27.488 88.954 28.512 89.402 28.96C89.882 29.408 90.458 29.632 91.13 29.632ZM110.78 10H117.692L117.068 12.976C118.156 12.016 119.132 11.28 119.996 10.768C120.892 10.256 121.852 10 122.876 10C123.9 10 124.7 10.352 125.276 11.056C125.884 11.76 126.188 12.608 126.188 13.6C126.188 14.528 125.884 15.344 125.276 16.048C124.668 16.752 123.82 17.104 122.732 17.104C122.028 17.104 121.548 16.944 121.292 16.624C121.068 16.272 120.892 15.776 120.764 15.136C120.668 14.72 120.572 14.416 120.476 14.224C120.38 14.032 120.204 13.936 119.948 13.936C119.276 13.936 118.7 14.08 118.22 14.368C117.772 14.624 117.18 15.088 116.444 15.76L112.604 34H105.692L110.78 10Z" fill="black"/>
</svg>
